<svg width="20" height="20" viewBox="0 0 20 20" fill="none" xmlns="http://www.w3.org/2000/svg">
<g id="archive-solid 1">
<rect width="20" height="20" fill="black"/>
<path id="Vector" d="M1.25 17.5C1.25 18.1914 1.80859 18.75 2.5 18.75H17.5C18.1914 18.75 18.75 18.1914 18.75 17.5V6.25H1.25V17.5ZM7.5 9.21875C7.5 8.96094 7.71094 8.75 7.96875 8.75H12.0312C12.2891 8.75 12.5 8.96094 12.5 9.21875V9.53125C12.5 9.78906 12.2891 10 12.0312 10H7.96875C7.71094 10 7.5 9.78906 7.5 9.53125V9.21875ZM18.75 1.25H1.25C0.558594 1.25 0 1.80859 0 2.5V4.375C0 4.71875 0.28125 5 0.625 5H19.375C19.7188 5 20 4.71875 20 4.375V2.5C20 1.80859 19.4414 1.25 18.75 1.25Z" fill="white"/>
</g>
</svg>
