<svg width="18" height="22" viewBox="0 0 25 25" fill="none" xmlns="http://www.w3.org/2000/svg">
<g id="bell-regular 1" clip-path="url(#clip0)">
<path id="Vector" d="M24.5189 17.6899C23.4407 16.6763 21.4234 15.1514 21.4234 10.1562C21.4234 6.3623 18.3833 3.3252 14.2839 2.58008V1.5625C14.2839 0.699707 13.4848 0 12.4993 0C11.5138 0 10.7147 0.699707 10.7147 1.5625V2.58008C6.61541 3.3252 3.57523 6.3623 3.57523 10.1562C3.57523 15.1514 1.55794 16.6763 0.479813 17.6899C0.144991 18.0049 -0.00344587 18.3813 -0.000655693 18.75C0.00548269 19.5508 0.723674 20.3125 1.79064 20.3125H23.208C24.275 20.3125 24.9937 19.5508 24.9993 18.75C25.0021 18.3813 24.8537 18.0044 24.5189 17.6899V17.6899ZM3.76776 17.9688C4.95191 16.603 6.24655 14.3394 6.25269 10.1846C6.25269 10.1748 6.24934 10.166 6.24934 10.1562C6.24934 7.13574 9.04733 4.6875 12.4993 4.6875C15.9513 4.6875 18.7493 7.13574 18.7493 10.1562C18.7493 10.166 18.746 10.1748 18.746 10.1846C18.7521 14.3398 20.0468 16.6035 21.2309 17.9688H3.76776ZM12.4993 25C14.4703 25 16.0691 23.6011 16.0691 21.875H8.92958C8.92958 23.6011 10.5284 25 12.4993 25Z" fill="#212529"/>
</g>
<defs>
<clipPath id="clip0">
<rect width="25" height="25" fill="white"/>
</clipPath>
</defs>
</svg>
