<svg width="24" height="24" viewBox="0 0 20 20" fill="none" xmlns="http://www.w3.org/2000/svg">
<g id="insights_black_24dp 1">
<rect width="20" height="20" fill="black"/>
<g id="Group">
<g id="Group_2">
<path id="Vector" d="M17.5 6.66666C16.2917 6.66666 15.6167 7.86666 15.8917 8.75832L12.9333 11.725C12.6833 11.65 12.3167 11.65 12.0667 11.725L9.94167 9.59999C10.225 8.70832 9.55 7.49999 8.33334 7.49999C7.125 7.49999 6.44167 8.69999 6.725 9.59999L2.925 13.3917C2.03334 13.1167 0.833336 13.7917 0.833336 15C0.833336 15.9167 1.58334 16.6667 2.5 16.6667C3.70834 16.6667 4.38334 15.4667 4.10834 14.575L7.9 10.775C8.15 10.85 8.51667 10.85 8.76667 10.775L10.8917 12.9C10.6083 13.7917 11.2833 15 12.5 15C13.7083 15 14.3917 13.8 14.1083 12.9L17.075 9.94166C17.9667 10.2167 19.1667 9.54166 19.1667 8.33332C19.1667 7.41666 18.4167 6.66666 17.5 6.66666Z" fill="white"/>
<path id="Vector_2" d="M12.5 7.5L13.2833 5.775L15 5L13.2833 4.225L12.5 2.5L11.7333 4.225L10 5L11.7333 5.775L12.5 7.5Z" fill="white"/>
<path id="Vector_3" d="M2.91667 9.16667L3.33334 7.5L5 7.08333L3.33334 6.66667L2.91667 5L2.5 6.66667L0.833336 7.08333L2.5 7.5L2.91667 9.16667Z" fill="white"/>
</g>
</g>
</g>
</svg>
