<svg width="22" height="19" viewBox="0 0 22 19" fill="none" xmlns="http://www.w3.org/2000/svg">
<g id="tachometer-alt-solid 1">
<rect width="22" height="19" fill="black"/>
<path id="Vector" d="M11 1.1875C4.92479 1.1875 0 5.97238 0 11.875C0 13.8344 0.544271 15.6698 1.49188 17.2484C1.70615 17.6054 2.11444 17.8125 2.53993 17.8125H19.4601C19.8856 17.8125 20.2939 17.6054 20.5081 17.2484C21.4557 15.6698 22 13.8344 22 11.875C22 5.97238 17.0752 1.1875 11 1.1875ZM11 3.5625C11.5618 3.5625 12.0152 3.93842 12.1581 4.44014C12.1157 4.524 12.0572 4.59711 12.0263 4.68766L11.6741 5.71447C11.4782 5.84398 11.2551 5.9375 11.0004 5.9375C10.3255 5.9375 9.77816 5.40572 9.77816 4.75C9.77816 4.09428 10.3251 3.5625 11 3.5625ZM3.66667 14.25C2.99177 14.25 2.44444 13.7182 2.44444 13.0625C2.44444 12.4068 2.99177 11.875 3.66667 11.875C4.34156 11.875 4.88889 12.4068 4.88889 13.0625C4.88889 13.7182 4.34156 14.25 3.66667 14.25ZM5.5 8.3125C4.8251 8.3125 4.27778 7.78072 4.27778 7.125C4.27778 6.46928 4.8251 5.9375 5.5 5.9375C6.1749 5.9375 6.72222 6.46928 6.72222 7.125C6.72222 7.78072 6.1749 8.3125 5.5 8.3125ZM14.9252 5.62541L12.5828 12.4535C13.1057 12.8892 13.4444 13.5279 13.4444 14.25C13.4444 14.6849 13.3153 15.0868 13.1053 15.4375H8.89472C8.68465 15.0868 8.55556 14.6849 8.55556 14.25C8.55556 12.9905 9.56771 11.9704 10.8434 11.8902L13.1862 5.06172C13.3455 4.59562 13.8634 4.33994 14.3458 4.49877C14.8259 4.65426 15.0849 5.15895 14.9252 5.62541V5.62541ZM15.4852 7.74807L16.078 6.02063C16.2105 5.97275 16.3503 5.93787 16.5 5.93787C17.1749 5.93787 17.7222 6.46965 17.7222 7.12537C17.7222 7.78109 17.1749 8.31287 16.5 8.31287C16.0653 8.3125 15.7021 8.07982 15.4852 7.74807ZM18.3333 14.25C17.6584 14.25 17.1111 13.7182 17.1111 13.0625C17.1111 12.4068 17.6584 11.875 18.3333 11.875C19.0082 11.875 19.5556 12.4068 19.5556 13.0625C19.5556 13.7182 19.0082 14.25 18.3333 14.25Z" fill="white"/>
</g>
</svg>
