<svg width="22" height="22" viewBox="0 0 22 22" fill="none" xmlns="http://www.w3.org/2000/svg">
<g id="thumbs-up-solid 1">
<rect width="22" height="22" fill="black"/>
<path id="Vector" d="M4.46875 9.625H1.03125C0.461699 9.625 0 10.0867 0 10.6562V20.9688C0 21.5383 0.461699 22 1.03125 22H4.46875C5.0383 22 5.5 21.5383 5.5 20.9688V10.6562C5.5 10.0867 5.0383 9.625 4.46875 9.625ZM2.75 20.2812C2.18045 20.2812 1.71875 19.8196 1.71875 19.25C1.71875 18.6804 2.18045 18.2188 2.75 18.2188C3.31955 18.2188 3.78125 18.6804 3.78125 19.25C3.78125 19.8196 3.31955 20.2812 2.75 20.2812ZM16.5 3.49989C16.5 5.32245 15.3841 6.34477 15.0701 7.5625H19.441C20.8761 7.5625 21.9933 8.75471 22 10.0589C22.0036 10.8297 21.6757 11.6594 21.1647 12.1728L21.16 12.1776C21.5826 13.1803 21.5139 14.5854 20.76 15.5922C21.133 16.7049 20.757 18.0717 20.0561 18.8045C20.2408 19.5606 20.1525 20.2042 19.7919 20.7222C18.9149 21.9823 16.7413 22 14.9032 22L14.781 22C12.7062 21.9992 11.0081 21.2438 9.64365 20.6368C8.958 20.3317 8.0615 19.9541 7.3813 19.9416C7.10029 19.9365 6.875 19.7071 6.875 19.4261V10.2407C6.875 10.1032 6.93009 9.9712 7.02788 9.87452C8.73005 8.19255 9.46198 6.4118 10.8571 5.01428C11.4932 4.37697 11.7246 3.4143 11.9482 2.48334C12.1393 1.68837 12.539 0 13.4062 0C14.4375 0 16.5 0.34375 16.5 3.49989Z" fill="white"/>
</g>
</svg>
