<svg width="20" height="17" viewBox="0 0 20 17" fill="none" xmlns="http://www.w3.org/2000/svg">
<g id="truck-solid 1">
<rect width="20" height="17" fill="black"/>
<path id="Vector" d="M19.5 11.6875H19V8.09824C19 7.67656 18.8406 7.27148 18.5594 6.97266L15.4375 3.65566C15.1562 3.35684 14.775 3.1875 14.3781 3.1875H13V1.59375C13 0.713867 12.3281 0 11.5 0H1.5C0.671875 0 0 0.713867 0 1.59375V12.2188C0 13.0986 0.671875 13.8125 1.5 13.8125H2C2 15.5723 3.34375 17 5 17C6.65625 17 8 15.5723 8 13.8125H12C12 15.5723 13.3438 17 15 17C16.6562 17 18 15.5723 18 13.8125H19.5C19.775 13.8125 20 13.5734 20 13.2812V12.2188C20 11.9266 19.775 11.6875 19.5 11.6875ZM5 15.4062C4.17188 15.4062 3.5 14.6924 3.5 13.8125C3.5 12.9326 4.17188 12.2188 5 12.2188C5.82812 12.2188 6.5 12.9326 6.5 13.8125C6.5 14.6924 5.82812 15.4062 5 15.4062ZM15 15.4062C14.1719 15.4062 13.5 14.6924 13.5 13.8125C13.5 12.9326 14.1719 12.2188 15 12.2188C15.8281 12.2188 16.5 12.9326 16.5 13.8125C16.5 14.6924 15.8281 15.4062 15 15.4062ZM17.5 8.5H13V4.78125H14.3781L17.5 8.09824V8.5Z" fill="white"/>
</g>
</svg>
