<svg width="20" height="20" viewBox="0 0 20 20" fill="none" xmlns="http://www.w3.org/2000/svg">
<g clip-path="url(#clip0)">
<rect width="20" height="20" fill="white"/>
<path d="M19.2082 4.41246L10.1274 0.0286328C10.0469 -0.0101953 9.95314 -0.0101953 9.87267 0.0286328L0.791838 4.41246C0.690588 4.46132 0.626252 4.56386 0.626252 4.67629V15.3227C0.626252 15.4351 0.690588 15.5377 0.791838 15.5866L9.87263 19.9704C9.91286 19.9898 9.95646 19.9995 10 19.9995C10.0436 19.9995 10.0871 19.9898 10.1274 19.9704L19.2082 15.5866C19.3094 15.5377 19.3738 15.4351 19.3738 15.3227V4.67632C19.3738 4.56382 19.3094 4.46136 19.2082 4.41246ZM10 0.617812L18.4069 4.67629L15.9699 5.85277C15.9545 5.84101 15.9382 5.83015 15.9203 5.82152L7.57052 1.79066L10 0.617812ZM6.90888 2.12191L15.3036 6.17449L13.5842 7.00453L5.19301 2.95359L6.90888 2.12191ZM15.5 6.73027V9.79847L13.894 10.5738V7.50558L15.5 6.73027ZM18.7878 15.1389L10.293 19.2398V9.24398L12.3193 8.26577C12.465 8.19542 12.5261 8.02031 12.4557 7.87456C12.3854 7.7289 12.2102 7.66773 12.0645 7.73812L10 8.7348L9.18767 8.34261C9.04192 8.27218 8.86681 8.33335 8.79645 8.47906C8.7261 8.62476 8.7872 8.79992 8.9329 8.87027L9.70704 9.24398V19.2398L1.21219 15.1388V5.14304L7.68095 8.26589C7.722 8.28574 7.7654 8.29511 7.80809 8.29511C7.917 8.29511 8.02161 8.2341 8.07212 8.12945C8.14247 7.98374 8.08138 7.80859 7.93567 7.73824L1.59309 4.67629L4.50344 3.27129L13.304 7.51984C13.3053 7.52164 13.3067 7.52324 13.3081 7.52499V11.0406C13.3081 11.1414 13.3599 11.2351 13.4453 11.2887C13.4927 11.3185 13.5468 11.3335 13.6011 11.3335C13.6445 11.3335 13.6881 11.3239 13.7284 11.3044L15.9203 10.2462C16.0216 10.1974 16.0859 10.0949 16.0859 9.98241V6.44746L18.7878 5.14308V15.1389V15.1389Z" fill="white"/>
<path d="M3.62992 14.0031L2.2973 13.3598C2.15152 13.2893 1.97644 13.3505 1.90609 13.4962C1.83574 13.6419 1.89683 13.8171 2.04254 13.8874L3.37516 14.5308C3.41621 14.5506 3.45961 14.56 3.5023 14.56C3.61121 14.56 3.71582 14.499 3.76633 14.3943C3.83672 14.2486 3.77563 14.0735 3.62992 14.0031Z" fill="white"/>
<path d="M4.85637 13.2048L2.29914 11.9702C2.1534 11.8999 1.97828 11.961 1.90793 12.1067C1.83762 12.2524 1.89871 12.4276 2.04442 12.4979L4.60164 13.7325C4.6427 13.7523 4.6861 13.7617 4.72879 13.7617C4.8377 13.7617 4.94231 13.7007 4.99282 13.596C5.06317 13.4502 5.00207 13.2751 4.85637 13.2048Z" fill="white"/>
</g>
<defs>
<clipPath id="clip0">
<rect width="20" height="20" fill="white"/>
</clipPath>
</defs>
</svg>
