<svg width="20" height="20" viewBox="0 0 20 20" fill="none" xmlns="http://www.w3.org/2000/svg">
<g id="database-solid 1">
<rect width="20" height="20" fill="black"/>
<path id="Vector" d="M20 2.85715V4.64285C20 6.21652 15.5208 7.5 10 7.5C4.47915 7.5 0 6.21652 0 4.64285V2.85715C0 1.28348 4.47915 0 10 0C15.5208 0 20 1.28348 20 2.85715ZM20 6.875V10.8929C20 12.4665 15.5208 13.75 10 13.75C4.47915 13.75 0 12.4665 0 10.8929V6.875C2.14844 8.16965 6.08071 8.77234 10 8.77234C13.9193 8.77234 17.8515 8.16965 20 6.875ZM20 13.125V17.1429C20 18.7165 15.5208 20 10 20C4.47915 20 0 18.7165 0 17.1429V13.125C2.14844 14.4196 6.08071 15.0223 10 15.0223C13.9193 15.0223 17.8515 14.4196 20 13.125Z" fill="white"/>
</g>
</svg>
