<svg width="22" height="22" viewBox="0 0 22 22" fill="none" xmlns="http://www.w3.org/2000/svg">
<g id="dolly-solid 1" clip-path="url(#clip0)">
<rect width="22" height="22" fill="black"/>
<path id="Vector" d="M11.2368 11.9324C11.9243 12.1473 12.5622 12.5082 13.1274 12.9938L19.2958 10.682C19.6167 10.5617 19.7885 10.1707 19.6816 9.81406L17.3747 2.02813C17.2677 1.66719 16.9201 1.47383 16.6031 1.59414L14.2694 2.4707L15.5337 6.7418L13.2153 7.60547L11.951 3.33438L9.59826 4.21523C9.27743 4.33555 9.10556 4.72656 9.2125 5.0832L11.2368 11.9324ZM21.9694 14.025L21.5799 12.7188C21.4729 12.3578 21.1253 12.1645 20.8083 12.2848L12.6538 15.3441C11.9969 14.3988 10.9885 13.7801 9.84653 13.7543L6.05 0.941016C5.88194 0.378125 5.41597 0 4.88889 0H0.611111C0.275 0 0 0.309375 0 0.6875V2.0625C0 2.44063 0.275 2.75 0.611111 2.75H4.0066L7.52813 14.6395C6.53125 15.516 5.93542 16.9426 6.15313 18.5281C6.38611 20.2211 7.60069 21.6348 9.10556 21.9313C11.4049 22.391 13.3948 20.4359 13.4368 17.9523L21.5837 14.893C21.9007 14.7727 22.0764 14.3859 21.9694 14.025V14.025ZM9.77778 19.9375C8.76562 19.9375 7.94444 19.0137 7.94444 17.875C7.94444 16.7363 8.76562 15.8125 9.77778 15.8125C10.7899 15.8125 11.6111 16.7363 11.6111 17.875C11.6111 19.0137 10.7899 19.9375 9.77778 19.9375Z" fill="white"/>
</g>
<defs>
<clipPath id="clip0">
<rect width="22" height="22" fill="white"/>
</clipPath>
</defs>
</svg>
