<svg width="20" height="20" viewBox="0 0 20 20" fill="none" xmlns="http://www.w3.org/2000/svg">
<g id="folder-open-solid (1) 1">
<rect width="20" height="20" fill="black"/>
<path id="Vector" d="M19.8852 11.4099L17.3705 16.2597C17.1748 16.6371 16.8946 16.9502 16.5578 17.1679C16.221 17.3855 15.8394 17.5 15.451 17.5H1.56337C0.920208 17.5 0.519479 16.7151 0.843542 16.0901L3.35826 11.2403C3.55397 10.8629 3.83418 10.5498 4.17097 10.3321C4.50777 10.1145 4.88938 10 5.27778 10H19.1654C19.8086 10 20.2093 10.7849 19.8852 11.4099ZM5.27778 8.75H16.6667V6.875C16.6667 5.83945 15.9205 5 15 5H9.44444L7.22222 2.5H1.66667C0.746181 2.5 0 3.33945 0 4.375V15.2362L2.39851 10.6105C2.99354 9.46289 4.09684 8.75 5.27778 8.75Z" fill="white"/>
</g>
</svg>
