<svg width="20" height="20" viewBox="0 0 20 20" fill="none" xmlns="http://www.w3.org/2000/svg">
<g id="folder-open-regular 1">
<rect width="20" height="20" fill="white"/>
<path id="Vector" d="M18.3299 8.75H16.6667V6.875C16.6667 5.83984 15.9201 5 15 5H9.44444L7.22222 2.5H1.66667C0.746528 2.5 0 3.33984 0 4.375V15.625C0 16.6602 0.746528 17.5 1.66667 17.5H15.5556C16.1285 17.5 16.6632 17.168 16.9688 16.6172L19.7431 11.6172C20.4375 10.3711 19.6389 8.75 18.3299 8.75ZM1.66667 4.60938C1.66667 4.48047 1.76042 4.375 1.875 4.375H6.53125L8.75347 6.875H14.7917C14.9063 6.875 15 6.98047 15 7.10938V8.75H5.27778C4.69444 8.75 4.15278 9.09375 3.85069 9.65625L1.66667 13.7266V4.60938ZM15.5556 15.625H2.5L5.18056 10.625H18.3333L15.5556 15.625Z" fill="black"/>
</g>
</svg>
