<svg width="12" height="12" viewBox="0 0 12 12" fill="none" xmlns="http://www.w3.org/2000/svg">
<g id="friends 1" clip-path="url(#clip0)">
<path id="Vector" d="M11.9869 7.78243C11.7888 6.66659 11.0483 5.77066 10.0719 5.3551C10.5052 4.99173 10.782 4.4415 10.782 3.82681C10.782 2.73505 9.90931 1.8468 8.83658 1.8468C7.76386 1.8468 6.89118 2.73495 6.89118 3.82681C6.89118 4.44186 7.16822 4.99228 7.60199 5.35574C7.44013 5.42477 7.2833 5.50717 7.13352 5.60321C6.75605 5.84527 6.43378 6.16406 6.1854 6.53741C5.93262 6.3695 5.6608 6.22979 5.37424 6.12259C5.99012 5.67736 6.39277 4.94531 6.39277 4.11923C6.39277 2.76544 5.31144 1.66406 3.98227 1.66406C2.65311 1.66406 1.57178 2.76544 1.57178 4.11923C1.57178 4.94531 1.97443 5.67736 2.5903 6.12259C1.27964 6.61294 0.274386 7.77905 0.0136437 9.24719C-0.034513 9.51864 0.0394616 9.79549 0.216433 10.0068C0.391757 10.216 0.647555 10.3359 0.918276 10.3359H7.04627C7.31699 10.3359 7.57279 10.216 7.74811 10.0068C7.92518 9.79549 7.99906 9.51864 7.9509 9.24719C7.91877 9.06609 7.87519 8.88967 7.82126 8.71856H11.2083C11.4414 8.71856 11.6617 8.61529 11.8126 8.4353C11.9648 8.25375 12.0283 8.01571 11.9869 7.78243V7.78243ZM7.5943 3.82681C7.5943 3.12268 8.15159 2.54993 8.83658 2.54993C9.52158 2.54993 10.0789 3.12268 10.0789 3.82681C10.0789 4.53085 9.52158 5.1036 8.83658 5.1036C8.15159 5.1036 7.5943 4.53085 7.5943 3.82681ZM2.27491 4.11923C2.27491 3.15317 3.04084 2.36719 3.98227 2.36719C4.92371 2.36719 5.68973 3.15317 5.68973 4.11923C5.68973 5.08529 4.92371 5.87127 3.98227 5.87127C3.04084 5.87127 2.27491 5.08529 2.27491 4.11923ZM7.20923 9.55517C7.18488 9.58419 7.13141 9.63281 7.04627 9.63281H0.918276C0.833132 9.63281 0.779666 9.58419 0.755313 9.55517C0.730044 9.52496 0.689944 9.46069 0.705966 9.37005C0.993624 7.75021 2.37149 6.5744 3.98227 6.5744C5.59305 6.5744 6.97101 7.75021 7.25858 9.37005C7.27469 9.46069 7.23459 9.52496 7.20923 9.55517ZM11.2737 7.98367C11.2637 7.99557 11.242 8.01544 11.2084 8.01544H7.52573C7.31772 7.6257 7.05057 7.27606 6.73719 6.97778C7.19513 6.24929 7.97782 5.80673 8.83658 5.80673C10.045 5.80673 11.0786 6.6893 11.2946 7.90539C11.3014 7.94375 11.2844 7.97094 11.2737 7.98367V7.98367Z" fill="#777777"/>
</g>
<defs>
<clipPath id="clip0">
<rect width="12" height="12" fill="white"/>
</clipPath>
</defs>
</svg>
