<svg width="20" height="20" viewBox="0 0 20 20" fill="none" xmlns="http://www.w3.org/2000/svg">
<g id="hand 1" clip-path="url(#clip0)">
<rect width="20" height="20" fill="black"/>
<path id="Vector" d="M9.22869 13.5651C9.38143 13.4123 9.38143 13.1651 9.22869 13.0124C9.0758 12.8601 8.82813 12.8601 8.67509 13.0124C8.52251 13.1651 8.52251 13.4123 8.67509 13.5651C8.82813 13.7174 9.0758 13.7174 9.22869 13.5651Z" fill="white"/>
<path id="Vector_2" d="M7.3757 4.29566C7.3757 6.66428 9.30651 8.59147 11.6798 8.59147C14.053 8.59147 15.9838 6.66428 15.9838 4.29566C15.9838 1.92703 14.053 0 11.6798 0C9.30651 0 7.3757 1.92703 7.3757 4.29566V4.29566ZM15.2014 4.29566C15.2014 6.23368 13.6216 7.81037 11.6798 7.81037C9.73795 7.81037 8.15818 6.23368 8.15818 4.29566C8.15818 2.35779 9.73795 0.781098 11.6798 0.781098C13.6216 0.781098 15.2014 2.35779 15.2014 4.29566Z" fill="white"/>
<path id="Vector_3" d="M4.52651 19.8845C4.67817 20.0371 4.92509 20.0388 5.07874 19.8877L6.97575 18.0225C7.29804 17.7008 7.39604 17.2246 7.25431 16.8106L7.66237 16.4179C7.88206 16.2061 8.17132 16.0893 8.4771 16.0893H13.6788C14.6016 16.0893 15.4738 15.7356 16.135 15.0934C16.1622 15.067 15.9285 15.3418 19.6837 10.8624C20.2406 10.2048 20.1573 9.21723 19.4978 8.66075C18.8423 8.10945 17.8605 8.18864 17.302 8.835L14.9931 11.2035C14.7016 10.8453 14.257 10.6221 13.7766 10.6221H9.41337C8.7925 10.3629 8.13371 10.2316 7.45398 10.2316C5.56981 10.2316 3.9246 11.1002 3.04168 12.7286C2.6697 12.6582 2.2774 12.7706 1.99517 13.0522L0.133776 14.9155C-0.0181934 15.0676 -0.0184991 15.3137 0.133164 15.4663L4.52651 19.8845ZM7.45383 11.0126C8.05314 11.0126 8.63258 11.133 9.1764 11.3704C9.22594 11.3921 9.27929 11.4032 9.33326 11.4032H13.7766C14.2009 11.4032 14.5592 11.7485 14.5592 12.1842C14.5592 12.6149 14.2082 12.9653 13.7766 12.9653H10.5842C10.3682 12.9653 10.1929 13.1401 10.1929 13.3557C10.1929 13.5715 10.3682 13.7462 10.5842 13.7462H13.7766C14.6396 13.7462 15.3417 13.0455 15.3417 12.1842C15.3417 12.1155 15.3368 12.0474 15.3279 11.98C17.5615 9.68858 17.8764 9.36662 17.8899 9.3506C18.1687 9.02207 18.6638 8.98042 18.9931 9.25752C19.3227 9.53569 19.3645 10.0295 19.0848 10.3598L15.5753 14.5471C15.0628 15.0382 14.39 15.3084 13.6788 15.3084H8.4771C7.96737 15.3084 7.48486 15.5029 7.11885 15.8559L6.78633 16.1762L3.72095 13.1169C4.43738 11.7755 5.78171 11.0126 7.45383 11.0126V11.0126ZM2.54892 13.6041C2.67796 13.4754 2.8761 13.4522 3.03342 13.5492C3.10115 13.5904 2.90668 13.4137 6.42246 16.9177C6.57886 17.0738 6.57045 17.3226 6.4246 17.4681L4.80736 19.0582L0.962726 15.1918L2.54892 13.6041Z" fill="white"/>
<path id="Vector_4" d="M11.2103 1.95267V2.41028C10.7548 2.57141 10.4276 3.00552 10.4276 3.51471C10.4276 4.16062 10.9542 4.68628 11.6015 4.68628C11.8172 4.68628 11.9927 4.86145 11.9927 5.07675C11.9927 5.29205 11.8172 5.46723 11.6015 5.46723C11.4344 5.46723 11.2538 5.3624 11.0935 5.17182C10.9543 5.00672 10.7076 4.98551 10.5421 5.12421C10.3767 5.26306 10.3553 5.50934 10.4944 5.67444C10.7036 5.9227 10.9496 6.09574 11.2103 6.18302V6.6388C11.2103 6.85456 11.3855 7.02927 11.6015 7.02927C11.8175 7.02927 11.9927 6.85456 11.9927 6.6388V6.18119C12.4482 6.0199 12.7754 5.58579 12.7754 5.07675C12.7754 4.4307 12.2488 3.90518 11.6015 3.90518C11.3858 3.90518 11.2103 3.73001 11.2103 3.51471C11.2103 3.29941 11.3858 3.12409 11.6015 3.12409C11.7402 3.12409 11.8865 3.19473 12.0247 3.32825C12.18 3.47824 12.4277 3.47412 12.578 3.31925C12.7283 3.16422 12.7241 2.91702 12.569 2.76703C12.3704 2.57523 12.1716 2.46674 11.9927 2.40753V1.95267C11.9927 1.73691 11.8175 1.56204 11.6015 1.56204C11.3855 1.56204 11.2103 1.73691 11.2103 1.95267V1.95267Z" fill="white"/>
</g>
<defs>
<clipPath id="clip0">
<rect width="20" height="20" fill="white"/>
</clipPath>
</defs>
</svg>
