<svg width="24" height="16" viewBox="0 0 18 14" fill="none" xmlns="http://www.w3.org/2000/svg">
<g id="handshake-regular 1">
<rect width="18" height="14" fill="black"/>
<path id="Vector" d="M14.6025 3.49727L13.2638 2.1957C12.9675 1.91019 12.5672 1.75 12.15 1.75H5.77125C5.355 1.75 4.95281 1.91133 4.6575 2.1957L3.31875 3.49727H0V10.4891H1.8C2.295 10.4891 2.69438 10.1008 2.69719 9.62227H2.95312L5.3325 11.7113C6.20156 12.3977 7.40813 12.4141 8.3025 11.8152C8.65406 12.1105 9.03375 12.25 9.45844 12.25C9.97031 12.25 10.4513 12.0477 10.8309 11.5938C11.4525 11.8316 12.1866 11.6648 12.6309 11.1344L13.3678 10.2512C13.5253 10.0625 13.6237 9.84648 13.6744 9.62227H15.3028C15.3056 10.1008 15.7078 10.4891 16.2 10.4891H18V3.49727H14.6025ZM1.35 9.61406C1.1025 9.61406 0.9 9.41719 0.9 9.17656C0.9 8.93594 1.1025 8.73906 1.35 8.73906C1.5975 8.73906 1.8 8.93594 1.8 9.17656C1.8 9.41992 1.5975 9.61406 1.35 9.61406ZM12.3187 9.42539L11.5847 10.3059C11.5059 10.3988 11.3653 10.4152 11.2669 10.3387L10.5947 9.8082L9.75094 10.8063C9.58219 11.0059 9.32906 10.9375 9.24469 10.8719L8.20969 10.0105L7.77094 10.5355C7.38 11.0031 6.66844 11.0742 6.21562 10.716L3.47906 8.30977H2.7V4.80703H3.87844L5.61375 3.12266C5.67 3.10078 5.71781 3.08164 5.77406 3.05977H7.36875L6.28031 4.03047C5.45344 4.76602 5.40562 6.00742 6.15656 6.80039C6.57281 7.24336 7.87781 7.92695 9.01125 6.9207L9.24187 6.71563L12.285 9.11641C12.3806 9.19297 12.3947 9.33242 12.3187 9.42539ZM15.3 8.30977H13.3537C13.2891 8.2332 13.2159 8.16211 13.1372 8.09922L10.2487 5.81875L10.6003 5.50703C10.7831 5.34297 10.7972 5.0668 10.6284 4.88906L10.3219 4.56914C10.1531 4.39141 9.86906 4.38047 9.68625 4.5418L8.13375 5.92539C7.86656 6.16328 7.41094 6.18242 7.16062 5.92539C6.89906 5.65469 6.92156 5.23906 7.19438 4.99844L9.03937 3.35508C9.2475 3.16914 9.5175 3.06797 9.79875 3.06797L12.1528 3.0625C12.2119 3.0625 12.2681 3.08438 12.3075 3.12539L14.0428 4.80977H15.3V8.30977ZM16.65 9.61406C16.4025 9.61406 16.2 9.41719 16.2 9.17656C16.2 8.93594 16.4025 8.73906 16.65 8.73906C16.8975 8.73906 17.1 8.93594 17.1 9.17656C17.1 9.41992 16.8975 9.61406 16.65 9.61406Z" fill="white"/>
</g>
</svg>
