<svg width="20" height="24" viewBox="0 0 15 15" fill="none" xmlns="http://www.w3.org/2000/svg">
<g id="friends 1" clip-path="url(#clip0)">
<path id="Vector" d="M14.9838 9.72804C14.7362 8.33324 13.8106 7.21332 12.5901 6.69387C13.1317 6.23966 13.4777 5.55187 13.4777 4.78351C13.4777 3.41881 12.3868 2.3085 11.0459 2.3085C9.70501 2.3085 8.61416 3.41869 8.61416 4.78351C8.61416 5.55233 8.96046 6.24035 9.50268 6.69468C9.30035 6.78096 9.10431 6.88396 8.91709 7.00401C8.44525 7.30659 8.04241 7.70507 7.73194 8.17176C7.41596 7.96188 7.07619 7.78724 6.71799 7.65323C7.48783 7.09671 7.99114 6.18164 7.99114 5.14904C7.99114 3.4568 6.63948 2.08008 4.97803 2.08008C3.31657 2.08008 1.96491 3.4568 1.96491 5.14904C1.96491 6.18164 2.46822 7.09671 3.23807 7.65323C1.59973 8.26618 0.343169 9.72381 0.0172416 11.559C-0.0429544 11.8983 0.0495139 12.2444 0.270728 12.5085C0.489883 12.77 0.809631 12.9199 1.14803 12.9199H8.80802C9.14643 12.9199 9.46617 12.77 9.68533 12.5085C9.90666 12.2444 9.99901 11.8983 9.93881 11.559C9.89865 11.3326 9.84417 11.1121 9.77677 10.8982H14.0106C14.302 10.8982 14.5773 10.7691 14.7659 10.5441C14.9561 10.3172 15.0356 10.0196 14.9838 9.72804V9.72804ZM9.49307 4.78351C9.49307 3.90335 10.1897 3.18741 11.0459 3.18741C11.9022 3.18741 12.5988 3.90335 12.5988 4.78351C12.5988 5.66356 11.9022 6.37951 11.0459 6.37951C10.1897 6.37951 9.49307 5.66356 9.49307 4.78351ZM2.84382 5.14904C2.84382 3.94146 3.80123 2.95898 4.97803 2.95898C6.15482 2.95898 7.11235 3.94146 7.11235 5.14904C7.11235 6.35662 6.15482 7.33909 4.97803 7.33909C3.80123 7.33909 2.84382 6.35662 2.84382 5.14904ZM9.01173 11.944C8.98129 11.9802 8.91445 12.041 8.80802 12.041H1.14803C1.0416 12.041 0.974769 11.9802 0.944328 11.944C0.912742 11.9062 0.862617 11.8259 0.882644 11.7126C1.24222 9.68776 2.96455 8.218 4.97803 8.218C6.9915 8.218 8.71395 9.68776 9.07341 11.7126C9.09355 11.8259 9.04343 11.9062 9.01173 11.944ZM14.0923 9.97958C14.0799 9.99446 14.0527 10.0193 14.0107 10.0193H9.40735C9.14734 9.53212 8.8134 9.09507 8.42167 8.72222C8.9941 7.81162 9.97246 7.25841 11.0459 7.25841C12.5564 7.25841 13.8485 8.36162 14.1184 9.88174C14.1269 9.92969 14.1057 9.96368 14.0923 9.97958V9.97958Z" fill="#777777"/>
</g>
<defs>
<clipPath id="clip0">
<rect width="15" height="15" fill="white"/>
</clipPath>
</defs>
</svg>
