<svg width="20" height="20" viewBox="0 0 20 20" fill="none" xmlns="http://www.w3.org/2000/svg">
<g id="return 1" clip-path="url(#clip0)">
<path id="Vector" d="M14.8244 6.78152H2.98151L5.40451 4.35851C5.7456 4.01743 5.7456 3.46452 5.40451 3.12343C5.06333 2.78225 4.51052 2.78235 4.16934 3.12343L0.255561 7.0374C-0.0855226 7.37848 -0.0855226 7.9314 0.255561 8.27248L4.16934 12.1863C4.33993 12.3568 4.5634 12.442 4.78688 12.442C5.01035 12.442 5.23383 12.3567 5.40442 12.1863C5.7455 11.8452 5.7455 11.2923 5.40442 10.9512L2.98141 8.52817H14.8243C16.7149 8.52817 18.253 10.0663 18.253 11.9569C18.253 13.8474 16.7149 15.3855 14.8243 15.3855H7.62015C7.13778 15.3855 6.74682 15.7765 6.74682 16.2589C6.74682 16.7412 7.13778 17.1322 7.62015 17.1322H14.8243C17.678 17.1322 19.9997 14.8105 19.9997 11.9569C19.9997 9.10321 17.6781 6.78152 14.8244 6.78152Z" fill="white"/>
</g>
<defs>
<clipPath id="clip0">
<rect width="20" height="20" fill="white"/>
</clipPath>
</defs>
</svg>
