<svg width="24" height="30" viewBox="0 0 24 30" fill="none" xmlns="http://www.w3.org/2000/svg">
<g id="shopping_bag_black_24dp 2" filter="url(#filter0_dd)">
<g id="Group">
<path id="Vector" d="M18 6H16C16 3.79 14.21 2 12 2C9.79 2 8 3.79 8 6H6C4.9 6 4 6.9 4 8V20C4 21.1 4.9 22 6 22H18C19.1 22 20 21.1 20 20V8C20 6.9 19.1 6 18 6ZM12 4C13.1 4 14 4.9 14 6H10C10 4.9 10.9 4 12 4ZM18 20H6V8H8V10C8 10.55 8.45 11 9 11C9.55 11 10 10.55 10 10V8H14V10C14 10.55 14.45 11 15 11C15.55 11 16 10.55 16 10V8H18V20Z" fill="black"/>
</g>
</g>
<defs>
<filter id="filter0_dd" x="-4" y="0" width="32" height="32" filterUnits="userSpaceOnUse" color-interpolation-filters="sRGB">
<feFlood flood-opacity="0" result="BackgroundImageFix"/>
<feColorMatrix in="SourceAlpha" type="matrix" values="0 0 0 0 0 0 0 0 0 0 0 0 0 0 0 0 0 0 127 0"/>
<feOffset dy="4"/>
<feGaussianBlur stdDeviation="2"/>
<feColorMatrix type="matrix" values="0 0 0 0 0 0 0 0 0 0 0 0 0 0 0 0 0 0 0.25 0"/>
<feBlend mode="normal" in2="BackgroundImageFix" result="effect1_dropShadow"/>
<feColorMatrix in="SourceAlpha" type="matrix" values="0 0 0 0 0 0 0 0 0 0 0 0 0 0 0 0 0 0 127 0"/>
<feOffset dy="4"/>
<feGaussianBlur stdDeviation="2"/>
<feColorMatrix type="matrix" values="0 0 0 0 0 0 0 0 0 0 0 0 0 0 0 0 0 0 0.25 0"/>
<feBlend mode="normal" in2="effect1_dropShadow" result="effect2_dropShadow"/>
<feBlend mode="normal" in="SourceGraphic" in2="effect2_dropShadow" result="shape"/>
</filter>
</defs>
</svg>
