 <svg width="21" height="20" viewBox="0 0 21 20" fill="none" xmlns="http://www.w3.org/2000/svg">
<g id="shopping_bag_black_24dp (1) 1">
<g id="Group">
<path id="Vector" d="M15.75 5.00001H14C14 3.15834 12.4338 1.66667 10.5 1.66667C8.56625 1.66667 7 3.15834 7 5.00001H5.25C4.2875 5.00001 3.5 5.75001 3.5 6.66667V16.6667C3.5 17.5833 4.2875 18.3333 5.25 18.3333H15.75C16.7125 18.3333 17.5 17.5833 17.5 16.6667V6.66667C17.5 5.75001 16.7125 5.00001 15.75 5.00001ZM10.5 3.33334C11.4625 3.33334 12.25 4.08334 12.25 5.00001H8.75C8.75 4.08334 9.5375 3.33334 10.5 3.33334ZM15.75 16.6667H5.25V6.66667H7V8.33334C7 8.79167 7.39375 9.16667 7.875 9.16667C8.35625 9.16667 8.75 8.79167 8.75 8.33334V6.66667H12.25V8.33334C12.25 8.79167 12.6437 9.16667 13.125 9.16667C13.6063 9.16667 14 8.79167 14 8.33334V6.66667H15.75V16.6667Z" fill="black"/>
</g>
</g>
</svg>
