<svg width="20" height="20" viewBox="0 0 20 20" fill="none" xmlns="http://www.w3.org/2000/svg">
<g id="speedometer 1">
<g id="Group">
<path id="Vector" d="M11.8828 16.6316H8.11719C7.79359 16.6316 7.53125 16.8939 7.53125 17.2175C7.53125 17.5411 7.79359 17.8034 8.11719 17.8034H11.8828C12.2064 17.8034 12.4687 17.5411 12.4687 17.2175C12.4687 16.8939 12.2064 16.6316 11.8828 16.6316Z" fill="white"/>
<path id="Vector_2" d="M11.648 13.0158C11.771 12.7689 11.8406 12.4907 11.8406 12.1962C11.8406 11.1796 11.0165 10.3556 10 10.3556C9.70535 10.3556 9.42711 10.4252 9.1802 10.5483L6.42027 7.78823C6.19148 7.5594 5.82047 7.5594 5.59164 7.78823C5.36281 8.01702 5.36281 8.38799 5.59164 8.61686L8.35176 11.3771C8.22891 11.6238 8.15945 11.9018 8.15945 12.1962C8.15945 13.2127 8.98352 14.0367 10 14.0367C10.2945 14.0367 10.5725 13.9673 10.8193 13.8444L11.4685 14.4937C11.6973 14.7225 12.0683 14.7226 12.2971 14.4938C12.526 14.265 12.526 13.894 12.2972 13.6651L11.648 13.0158ZM10 12.8649C9.63129 12.8649 9.33129 12.5649 9.33129 12.1962C9.33129 11.8275 9.63125 11.5275 10 11.5275C10.3687 11.5275 10.6687 11.8275 10.6687 12.1962C10.6687 12.5649 10.3687 12.8649 10 12.8649V12.8649Z" fill="white"/>
<path id="Vector_3" d="M10 2.19659C4.48598 2.19659 0 6.68257 0 12.1966C0 13.954 0.463359 15.6832 1.34004 17.1973C1.50199 17.4769 1.85988 17.5726 2.1398 17.4112C2.13992 17.4111 3.7707 16.4697 3.7707 16.4697C4.05094 16.3079 4.14695 15.9496 3.98516 15.6693C3.82336 15.3891 3.46508 15.2929 3.18477 15.4548L2.07805 16.0938C1.56969 15.0617 1.26871 13.935 1.19211 12.7826H2.46875C2.79234 12.7826 3.05469 12.5202 3.05469 12.1966C3.05469 11.873 2.79234 11.6107 2.46875 11.6107H1.1918C1.26961 10.4292 1.58074 9.31058 2.07973 8.30042L3.1848 8.93843C3.46512 9.10034 3.82348 9.00421 3.9852 8.72398C4.14699 8.4437 4.05098 8.08534 3.77074 7.92359L2.66703 7.28632C3.30941 6.33015 4.13359 5.50597 5.08977 4.86359L5.72695 5.96718C5.88875 6.24745 6.24711 6.34355 6.52734 6.18163C6.80758 6.0198 6.90359 5.66148 6.7418 5.38124L6.10383 4.27628C7.11398 3.77734 8.23266 3.4664 9.41406 3.38847V4.66538C9.41406 4.98898 9.67641 5.25132 10 5.25132C10.3236 5.25132 10.5859 4.98898 10.5859 4.66538V3.38847C11.7673 3.4664 12.886 3.77738 13.8962 4.27628L13.2582 5.38124C13.0964 5.66148 13.1924 6.01984 13.4727 6.18163C13.7529 6.34355 14.1113 6.24745 14.273 5.96718L14.9102 4.86359C15.8664 5.50593 16.6906 6.33011 17.333 7.28632L16.2293 7.92351C15.9491 8.0853 15.853 8.44363 16.0148 8.7239C16.1766 9.00413 16.5349 9.10027 16.8152 8.93835L17.9203 8.30034C18.4193 9.3105 18.7304 10.4291 18.8082 11.6106H17.5312C17.2077 11.6106 16.9453 11.873 16.9453 12.1966C16.9453 12.5201 17.2077 12.7825 17.5312 12.7825H18.8079C18.7313 13.9349 18.4303 15.0616 17.922 16.0937L16.8152 15.4548C16.5349 15.2928 16.1766 15.389 16.0148 15.6692C15.853 15.9495 15.9491 16.3078 16.2293 16.4696C16.2293 16.4696 17.8601 17.411 17.8602 17.4111C18.1402 17.5725 18.498 17.4769 18.66 17.1972C19.5366 15.6832 20 13.9541 20 12.1966C20 6.68257 15.514 2.19659 10 2.19659V2.19659Z" fill="white"/>
</g>
</g>
</svg>
