<svg width="0.1" height="0.1" viewBox="0 0 13 13" fill="none" xmlns="http://www.w3.org/2000/svg">
<g id="calendar-alt-regular 1">
<path id="Vector" d="M4.29464 7.3125H3.13393C2.94241 7.3125 2.78571 7.17539 2.78571 7.00781V5.99219C2.78571 5.82461 2.94241 5.6875 3.13393 5.6875H4.29464C4.48616 5.6875 4.64286 5.82461 4.64286 5.99219V7.00781C4.64286 7.17539 4.48616 7.3125 4.29464 7.3125ZM7.42857 7.00781V5.99219C7.42857 5.82461 7.27187 5.6875 7.08036 5.6875H5.91964C5.72812 5.6875 5.57143 5.82461 5.57143 5.99219V7.00781C5.57143 7.17539 5.72812 7.3125 5.91964 7.3125H7.08036C7.27187 7.3125 7.42857 7.17539 7.42857 7.00781ZM10.2143 7.00781V5.99219C10.2143 5.82461 10.0576 5.6875 9.86607 5.6875H8.70536C8.51384 5.6875 8.35714 5.82461 8.35714 5.99219V7.00781C8.35714 7.17539 8.51384 7.3125 8.70536 7.3125H9.86607C10.0576 7.3125 10.2143 7.17539 10.2143 7.00781ZM7.42857 9.44531V8.42969C7.42857 8.26211 7.27187 8.125 7.08036 8.125H5.91964C5.72812 8.125 5.57143 8.26211 5.57143 8.42969V9.44531C5.57143 9.61289 5.72812 9.75 5.91964 9.75H7.08036C7.27187 9.75 7.42857 9.61289 7.42857 9.44531ZM4.64286 9.44531V8.42969C4.64286 8.26211 4.48616 8.125 4.29464 8.125H3.13393C2.94241 8.125 2.78571 8.26211 2.78571 8.42969V9.44531C2.78571 9.61289 2.94241 9.75 3.13393 9.75H4.29464C4.48616 9.75 4.64286 9.61289 4.64286 9.44531ZM10.2143 9.44531V8.42969C10.2143 8.26211 10.0576 8.125 9.86607 8.125H8.70536C8.51384 8.125 8.35714 8.26211 8.35714 8.42969V9.44531C8.35714 9.61289 8.51384 9.75 8.70536 9.75H9.86607C10.0576 9.75 10.2143 9.61289 10.2143 9.44531ZM13 2.84375V11.7812C13 12.4541 12.3761 13 11.6071 13H1.39286C0.623884 13 0 12.4541 0 11.7812V2.84375C0 2.1709 0.623884 1.625 1.39286 1.625H2.78571V0.304688C2.78571 0.137109 2.94241 0 3.13393 0H4.29464C4.48616 0 4.64286 0.137109 4.64286 0.304688V1.625H8.35714V0.304688C8.35714 0.137109 8.51384 0 8.70536 0H9.86607C10.0576 0 10.2143 0.137109 10.2143 0.304688V1.625H11.6071C12.3761 1.625 13 2.1709 13 2.84375ZM11.6071 11.6289V4.0625H1.39286V11.6289C1.39286 11.7127 1.47121 11.7812 1.56696 11.7812H11.433C11.5288 11.7812 11.6071 11.7127 11.6071 11.6289Z" fill="#222222"/>
</g>
</svg>
